<svg width="256px" height="256px" viewBox="0 0 1024 1024" class="icon" version="1.1" xmlns="http://www.w3.org/2000/svg" fill="#000000"><g id="SVGRepo_bgCarrier" strokeWidth="0"></g><g id="SVGRepo_tracerCarrier" strokeLinecap="round" strokeLinejoin="round" stroke="#fff0f0" strokeWidth="112.64000000000001"><path d="M134.12352 549.12L42.24 650.24v103.68l32 58.88 158.72-87.04" fill="#7a83ff"></path><path d="M943.29344 313.05728l40.18688 69.62688L98.16064 893.9008l-40.2176-69.62688 180.2752-104.0896 595.13344-343.63392 109.94176-63.49312z" fill="#654848"></path><path d="M943.29344 313.05728l-109.94176 63.488c-37.46816-64.99328-35.99872-141.81376-2.74944-203.2896 40.2176 33.09056 79.18592 81.77664 112.6912 139.8016z" fill="#56536e"></path><path d="M833.35168 376.54528L238.21824 720.18432l-2.01216-3.51744-62.59712-108.40576 240.82432-366.39744c26.31168 33.18272 66.944 54.25152 111.98976 54.25152 2.36544 0 4.73088-0.03072 7.12704-0.15872 78.92992-3.83488 139.8016-70.9376 135.93088-149.8368l0.70144-6.26688c48.59392-28.03712 105.65632-11.73504 160.41984 33.408-33.24416 61.47072-34.71872 138.2912 2.74944 203.28448z" fill="#73ff61"></path><path d="M414.42816 241.86368l-240.82432 366.39744-39.48032-68.38272 249.58464-379.85792a142.31552 142.31552 0 0 0 30.72 81.8432z" fill="#56536e"></path><path d="M943.31904 335.4368a22.3744 22.3744 0 0 1-19.39968-11.1872c-32.55808-56.38144-69.73952-102.62016-107.53024-133.7088-35.56352-29.312-87.8336-58.52672-135.01952-31.3088a22.37952 22.37952 0 0 1-22.36928-38.76352c54.144-31.24224 120.1408-18.63168 185.83552 35.52256 41.87136 34.44736 82.62144 84.89472 117.8368 145.87904a22.38464 22.38464 0 0 1-19.3536 33.56672z m-885.3504 511.21664a22.36416 22.36416 0 0 1-19.39968-11.19232c-30.80704-53.35552-38.99392-115.50208-23.05536-174.99136 15.93856-59.48928 54.0928-109.20448 107.43296-139.9808a22.3744 22.3744 0 0 1 22.36416 38.76864c-42.9824 24.79616-73.728 64.84992-86.56896 112.78848-12.84608 47.94368-6.24128 98.02752 18.5856 141.0304a22.37952 22.37952 0 0 1-19.35872 33.57696z" fill="#000000"></path><path d="M134.10304 562.25792a22.3744 22.3744 0 0 1-18.67776-34.66752l249.57952-379.8528a22.3744 22.3744 0 1 1 37.52448 24.3968l-0.11776 0.1792-249.58464 379.85792a22.3744 22.3744 0 0 1-18.72384 10.0864z m-35.92192 354.02752a22.3744 22.3744 0 0 1-19.39968-11.1872l-40.2176-69.62688a22.39488 22.39488 0 0 1 8.18688-30.57664l885.3504-511.21152a22.36928 22.36928 0 0 1 30.57152 8.19712l40.18688 69.62688a22.3744 22.3744 0 0 1-8.192 30.5664L109.34784 913.28a22.28224 22.28224 0 0 1-11.16672 3.00544z m-9.66656-83.82464l17.83296 30.86848 846.5664-488.83712-17.81248-30.86336L88.51456 832.4608z" fill="#000000"></path><path d="M526.41792 318.4896c-50.70848 0-97.91488-22.86592-129.52064-62.72512-21.56544-27.17696-33.85344-59.91424-35.53792-94.66368a22.3744 22.3744 0 0 1 44.6976-2.2016v0.03584a119.66976 119.66976 0 0 0 25.90208 69.01248c23.07072 29.09696 57.4976 45.78304 94.45376 45.78304 1.9712 0 3.93728-0.02048 5.9392-0.13312 32.3072-1.57184 61.97248-15.58016 83.63008-39.45984a119.81824 119.81824 0 0 0 31.13984-86.9376 22.3744 22.3744 0 0 1 21.25312-23.44448c12.31872-0.63488 22.84032 8.91392 23.44448 21.25824 2.16576 44.1344-12.99456 86.46656-42.69056 119.19872-29.69088 32.73216-70.35904 51.9424-114.49856 54.08768-2.38592 0.13312-4.95104 0.18944-8.21248 0.18944z m-290.19648 420.5568a22.36416 22.36416 0 0 1-19.39968-11.19232L114.74432 551.0656a22.3744 22.3744 0 1 1 38.7584-22.37952l102.07744 176.78848a22.38464 22.38464 0 0 1-19.35872 33.57184z" fill="#000000"></path><path d="M173.58848 630.64064a22.37952 22.37952 0 0 1-18.68288-34.67264l240.82432-366.39744a22.3744 22.3744 0 0 1 37.4016 24.58112L192.3072 620.54912a22.3488 22.3488 0 0 1-18.71872 10.09152z m659.78368-231.71072a22.36928 22.36928 0 0 1-19.40992-11.20768c-40.31488-69.9392-41.45664-154.09152-3.04128-225.11104a22.3744 22.3744 0 0 1 39.36768 21.28896c-30.96576 57.25184-30.04928 125.09184 2.45248 181.46816a22.37952 22.37952 0 0 1-19.36896 33.5616z m-349.7728 192.6144a22.28736 22.28736 0 0 1-8.53504-1.69984l-143.86176-59.43296a22.37952 22.37952 0 0 1 17.09056-41.3696l143.86176 59.43296a22.3744 22.3744 0 0 1-8.55552 43.06944z m79.9232-54.3488a22.28736 22.28736 0 0 1-8.53504-1.69984L411.12576 476.06784a22.37952 22.37952 0 0 1 17.09056-41.3696l143.86176 59.43296a22.38464 22.38464 0 0 1-8.55552 43.06432z m89.51296-44.75392a22.28736 22.28736 0 0 1-8.53504-1.69984L500.64384 431.3088a22.37952 22.37952 0 0 1 17.09056-41.3696l143.86176 59.43296a22.38464 22.38464 0 0 1-8.56064 43.06944z" fill="#000000"></path></g><g id="SVGRepo_iconCarrier"><path d="M134.12352 549.12L42.24 650.24v103.68l32 58.88 158.72-87.04" fill="#7a83ff"></path><path d="M943.29344 313.05728l40.18688 69.62688L98.16064 893.9008l-40.2176-69.62688 180.2752-104.0896 595.13344-343.63392 109.94176-63.49312z" fill="#654848"></path><path d="M943.29344 313.05728l-109.94176 63.488c-37.46816-64.99328-35.99872-141.81376-2.74944-203.2896 40.2176 33.09056 79.18592 81.77664 112.6912 139.8016z" fill="#56536e"></path><path d="M833.35168 376.54528L238.21824 720.18432l-2.01216-3.51744-62.59712-108.40576 240.82432-366.39744c26.31168 33.18272 66.944 54.25152 111.98976 54.25152 2.36544 0 4.73088-0.03072 7.12704-0.15872 78.92992-3.83488 139.8016-70.9376 135.93088-149.8368l0.70144-6.26688c48.59392-28.03712 105.65632-11.73504 160.41984 33.408-33.24416 61.47072-34.71872 138.2912 2.74944 203.28448z" fill="#73ff61"></path><path d="M414.42816 241.86368l-240.82432 366.39744-39.48032-68.38272 249.58464-379.85792a142.31552 142.31552 0 0 0 30.72 81.8432z" fill="#56536e"></path><path d="M943.31904 335.4368a22.3744 22.3744 0 0 1-19.39968-11.1872c-32.55808-56.38144-69.73952-102.62016-107.53024-133.7088-35.56352-29.312-87.8336-58.52672-135.01952-31.3088a22.37952 22.37952 0 0 1-22.36928-38.76352c54.144-31.24224 120.1408-18.63168 185.83552 35.52256 41.87136 34.44736 82.62144 84.89472 117.8368 145.87904a22.38464 22.38464 0 0 1-19.3536 33.56672z m-885.3504 511.21664a22.36416 22.36416 0 0 1-19.39968-11.19232c-30.80704-53.35552-38.99392-115.50208-23.05536-174.99136 15.93856-59.48928 54.0928-109.20448 107.43296-139.9808a22.3744 22.3744 0 0 1 22.36416 38.76864c-42.9824 24.79616-73.728 64.84992-86.56896 112.78848-12.84608 47.94368-6.24128 98.02752 18.5856 141.0304a22.37952 22.37952 0 0 1-19.35872 33.57696z" fill="#000000"></path><path d="M134.10304 562.25792a22.3744 22.3744 0 0 1-18.67776-34.66752l249.57952-379.8528a22.3744 22.3744 0 1 1 37.52448 24.3968l-0.11776 0.1792-249.58464 379.85792a22.3744 22.3744 0 0 1-18.72384 10.0864z m-35.92192 354.02752a22.3744 22.3744 0 0 1-19.39968-11.1872l-40.2176-69.62688a22.39488 22.39488 0 0 1 8.18688-30.57664l885.3504-511.21152a22.36928 22.36928 0 0 1 30.57152 8.19712l40.18688 69.62688a22.3744 22.3744 0 0 1-8.192 30.5664L109.34784 913.28a22.28224 22.28224 0 0 1-11.16672 3.00544z m-9.66656-83.82464l17.83296 30.86848 846.5664-488.83712-17.81248-30.86336L88.51456 832.4608z" fill="#000000"></path><path d="M526.41792 318.4896c-50.70848 0-97.91488-22.86592-129.52064-62.72512-21.56544-27.17696-33.85344-59.91424-35.53792-94.66368a22.3744 22.3744 0 0 1 44.6976-2.2016v0.03584a119.66976 119.66976 0 0 0 25.90208 69.01248c23.07072 29.09696 57.4976 45.78304 94.45376 45.78304 1.9712 0 3.93728-0.02048 5.9392-0.13312 32.3072-1.57184 61.97248-15.58016 83.63008-39.45984a119.81824 119.81824 0 0 0 31.13984-86.9376 22.3744 22.3744 0 0 1 21.25312-23.44448c12.31872-0.63488 22.84032 8.91392 23.44448 21.25824 2.16576 44.1344-12.99456 86.46656-42.69056 119.19872-29.69088 32.73216-70.35904 51.9424-114.49856 54.08768-2.38592 0.13312-4.95104 0.18944-8.21248 0.18944z m-290.19648 420.5568a22.36416 22.36416 0 0 1-19.39968-11.19232L114.74432 551.0656a22.3744 22.3744 0 1 1 38.7584-22.37952l102.07744 176.78848a22.38464 22.38464 0 0 1-19.35872 33.57184z" fill="#000000"></path><path d="M173.58848 630.64064a22.37952 22.37952 0 0 1-18.68288-34.67264l240.82432-366.39744a22.3744 22.3744 0 0 1 37.4016 24.58112L192.3072 620.54912a22.3488 22.3488 0 0 1-18.71872 10.09152z m659.78368-231.71072a22.36928 22.36928 0 0 1-19.40992-11.20768c-40.31488-69.9392-41.45664-154.09152-3.04128-225.11104a22.3744 22.3744 0 0 1 39.36768 21.28896c-30.96576 57.25184-30.04928 125.09184 2.45248 181.46816a22.37952 22.37952 0 0 1-19.36896 33.5616z m-349.7728 192.6144a22.28736 22.28736 0 0 1-8.53504-1.69984l-143.86176-59.43296a22.37952 22.37952 0 0 1 17.09056-41.3696l143.86176 59.43296a22.3744 22.3744 0 0 1-8.55552 43.06944z m79.9232-54.3488a22.28736 22.28736 0 0 1-8.53504-1.69984L411.12576 476.06784a22.37952 22.37952 0 0 1 17.09056-41.3696l143.86176 59.43296a22.38464 22.38464 0 0 1-8.55552 43.06432z m89.51296-44.75392a22.28736 22.28736 0 0 1-8.53504-1.69984L500.64384 431.3088a22.37952 22.37952 0 0 1 17.09056-41.3696l143.86176 59.43296a22.38464 22.38464 0 0 1-8.56064 43.06944z" fill="#000000"></path></g></svg>